<svg width="100%" height="100%" viewBox="-10 -10 169 125" version="1.1" xmlns="http://www.w3.org/2000/svg" xmlns:xlink="http://www.w3.org/1999/xlink" xml:space="preserve" xmlns:serif="http://www.serif.com/" style="fill-rule:evenodd;clip-rule:evenodd;stroke-linejoin:round;stroke-miterlimit:2;"><g id="Layer1" opacity="0.35"><path d="M45,2.959c0,-1.633 -1.326,-2.959 -2.959,-2.959l-39.082,0c-1.633,0 -2.959,1.326 -2.959,2.959l0,24.082c0,1.633 1.326,2.959 2.959,2.959l39.082,0c1.633,0 2.959,-1.326 2.959,-2.959l0,-24.082Z"/><path d="M45,40.459c0,-1.633 -1.326,-2.959 -2.959,-2.959l-39.082,-0c-1.633,-0 -2.959,1.326 -2.959,2.959l0,24.082c0,1.633 1.326,2.959 2.959,2.959l39.082,-0c1.633,-0 2.959,-1.326 2.959,-2.959l0,-24.082Z" style="fill:#1d2a37;"/><path d="M45,77.959c0,-1.633 -1.326,-2.959 -2.959,-2.959l-39.082,-0c-1.633,-0 -2.959,1.326 -2.959,2.959l0,24.082c0,1.633 1.326,2.959 2.959,2.959l39.082,-0c1.633,-0 2.959,-1.326 2.959,-2.959l0,-24.082Z" style="fill:#1d2a37;"/><path d="M96.75,2.959c0,-1.633 -1.326,-2.959 -2.959,-2.959l-39.082,0c-1.633,0 -2.959,1.326 -2.959,2.959l0,24.082c0,1.633 1.326,2.959 2.959,2.959l39.082,0c1.633,0 2.959,-1.326 2.959,-2.959l0,-24.082Z" style="fill:#1d2a37;"/><path d="M96.75,40.459c0,-1.633 -1.326,-2.959 -2.959,-2.959l-39.082,0c-1.633,0 -2.959,1.326 -2.959,2.959l0,24.082c0,1.633 1.326,2.959 2.959,2.959l39.082,0c1.633,0 2.959,-1.326 2.959,-2.959l0,-24.082Z" style="fill:#1d2a37;"/><path d="M96.75,77.959c0,-1.633 -1.326,-2.959 -2.959,-2.959l-39.082,-0c-1.633,-0 -2.959,1.326 -2.959,2.959l0,24.082c0,1.633 1.326,2.959 2.959,2.959l39.082,-0c1.633,-0 2.959,-1.326 2.959,-2.959l0,-24.082Z" style="fill:#1d2a37;"/><path d="M148.5,2.959c0,-1.633 -1.326,-2.959 -2.959,-2.959l-39.082,0c-1.633,0 -2.959,1.326 -2.959,2.959l0,24.082c0,1.633 1.326,2.959 2.959,2.959l39.082,0c1.633,0 2.959,-1.326 2.959,-2.959l0,-24.082Z" style="fill:#1d2a37;"/><path d="M148.5,40.459c0,-1.633 -1.326,-2.959 -2.959,-2.959l-39.082,0c-1.633,0 -2.959,1.326 -2.959,2.959l0,24.082c0,1.633 1.326,2.959 2.959,2.959l39.082,0c1.633,0 2.959,-1.326 2.959,-2.959l0,-24.082Z" style="fill:#1d2a37;"/><path d="M148.5,77.959c0,-1.633 -1.326,-2.959 -2.959,-2.959l-39.082,0c-1.633,0 -2.959,1.326 -2.959,2.959l0,24.082c0,1.633 1.326,2.959 2.959,2.959l39.082,0c1.633,0 2.959,-1.326 2.959,-2.959l0,-24.082Z" style="fill:#1d2a37;"/></g><path d="M7.773,105l1.769,-3.892c0.583,-1.284 1.863,-2.108 3.274,-2.108l4.26,-0c-1.572,-1.355 -2.595,-3.558 -2.595,-6.044c-0,-4.115 2.805,-7.456 6.259,-7.456c3.455,0 6.26,3.341 6.26,7.456c0,2.486 -1.024,4.689 -2.596,6.044l3.724,0c1.566,0 2.956,1.002 3.451,2.487l1.171,3.513l-24.977,0Zm112.227,0l0,-4.445c0,-2.197 1.784,-3.981 3.982,-3.981l2.512,-0c-1.164,-1.336 -1.879,-3.138 -1.879,-5.118c0,-4.115 3.083,-7.456 6.88,-7.456c3.797,0 6.88,3.341 6.88,7.456c0,1.98 -0.714,3.782 -1.878,5.118l2.771,-0c2.198,-0 3.982,1.784 3.982,3.981l0,4.445l-23.25,0Zm-29.25,0l-26.75,0c0,0 1.681,-3.698 2.792,-6.142c0.583,-1.284 1.863,-2.108 3.274,-2.108l4.084,-0c-1.472,-1.227 -2.419,-3.143 -2.419,-5.294c-0,-3.701 2.805,-6.706 6.259,-6.706c3.455,0 6.26,3.005 6.26,6.706c0,2.151 -0.947,4.067 -2.419,5.294l3.547,0c1.566,0 2.956,1.002 3.451,2.487l1.921,5.763Zm-81,-37.5l0,-2.945c0,-2.197 1.784,-3.981 3.982,-3.981l4.612,-0c-0.763,-0.454 -1.428,-1.074 -1.954,-1.814l-0.64,1.52l-0.324,-3.485c-0.034,-0.11 -0.065,-0.221 -0.094,-0.334c-0.198,0.975 -1.027,4.919 -1.082,3.164c-0.063,-1.995 0.197,-4.957 1.125,-7.875c0.928,-2.918 1.485,-3.428 3.375,-4.125c1.682,-0.62 2.625,0.375 2.625,0.375c0.277,-0.384 1.183,-1.28 2.625,-0.375c2.635,1.654 3.646,3.933 4.125,6.75c0.479,2.817 0,4.875 0,4.875l-1.007,-1.875l-0.118,3l-0.361,-2.041c-0.032,0.052 -0.063,0.104 -0.096,0.155l-0.668,1.886l-0.2,-0.798c-0.381,0.386 -0.807,0.722 -1.269,0.997l4.612,-0c2.198,-0 3.982,1.784 3.982,3.981l0,2.945l-23.25,0Zm105.75,0l0,-3.21c0,-2.66 2.16,-4.819 4.82,-4.819l6.269,-0c-2.484,-1.386 -4.166,-4.049 -4.166,-7.103c0,-4.481 3.619,-8.118 8.077,-8.118c4.458,0 8.077,3.637 8.077,8.118c-0,3.054 -1.682,5.717 -4.166,7.103l6.269,-0c2.66,-0 4.82,2.159 4.82,4.819l0,3.21l-30,0Zm-61.5,0l1.66,-4.695c0.467,-1.322 1.717,-2.206 3.119,-2.206l1.906,0c-1.008,-0.893 -1.651,-2.244 -1.651,-3.754c-0,-2.689 2.037,-4.872 4.546,-4.872c2.51,0 4.547,2.183 4.547,4.872c0,1.51 -0.643,2.861 -1.651,3.754l1.865,0c1.525,0 2.857,1.031 3.24,2.507l1.139,4.394l-18.72,0Zm19.864,0l9.199,-13.792l0.484,0.322l-8.985,13.47l-0.698,0Zm5.724,-9.316l3.383,-5.067l1.148,0.766l-2.872,4.301l12.878,0l0,-13.456l-23.117,-0l-0,13.456l8.58,0Zm-59.369,-37.36c-1.925,-1.145 -3.229,-3.345 -3.229,-5.868c0,-3.701 2.805,-6.706 6.26,-6.706c3.455,0 6.26,3.005 6.26,6.706c-0,2.523 -1.304,4.723 -3.229,5.868l4.612,-0c2.198,-0 3.982,1.784 3.982,3.981l0,5.195l-23.25,0l0,-5.195c0,-2.197 1.784,-3.981 3.982,-3.981l4.612,-0Zm94.906,9.176l0,-5.945c0,-2.197 1.784,-3.981 3.982,-3.981l4.612,-0c-1.925,-1.145 -3.229,-3.345 -3.229,-5.868c0,-3.701 2.805,-6.706 6.26,-6.706c3.455,0 6.26,3.005 6.26,6.706c-0,2.523 -1.304,4.723 -3.229,5.868l4.612,-0c2.198,-0 3.982,1.784 3.982,3.981l0,5.945l-23.25,0Zm-57.75,0l0,-6.695c0,-2.197 1.784,-3.981 3.982,-3.981l4.612,-0c-1.925,-1.145 -3.229,-3.345 -3.229,-5.868c0,-3.701 2.805,-6.706 6.26,-6.706c1.897,0 3.597,0.906 4.746,2.335c2.477,0.206 4.254,0.762 4.254,1.415c0,0.531 -1.173,0.997 -2.942,1.264c0.132,0.54 0.202,1.107 0.202,1.692c-0,2.523 -1.304,4.723 -3.229,5.868l4.612,-0c2.198,-0 3.982,1.784 3.982,3.981l0,6.695l-23.25,0Z"/></svg>
