<?xml version="1.0" encoding="UTF-8" standalone="no"?><!DOCTYPE svg PUBLIC "-//W3C//DTD SVG 1.1//EN" "http://www.w3.org/Graphics/SVG/1.1/DTD/svg11.dtd"><svg width="100%" height="100%" viewBox="0 0 232 232" version="1.1" xmlns="http://www.w3.org/2000/svg" xmlns:xlink="http://www.w3.org/1999/xlink" xml:space="preserve" xmlns:serif="http://www.serif.com/" style="fill-rule:evenodd;clip-rule:evenodd;stroke-linejoin:round;stroke-miterlimit:2;"><g><circle cx="116.082" cy="116.082" r="116.082" style="fill:#35495e;"/><path d="M64.365,88.255c0,10.677 -6.716,17.995 -16.921,17.995c-5.708,-0 -10.007,-2.282 -12.625,-6.447l-0,6.179l-7.723,-0l0,-49.826l7.722,-0l0,20.28c2.619,-4.164 6.918,-6.447 12.491,-6.447c10.138,0 17.056,7.388 17.056,18.266Zm-7.789,-0.268c-0,-6.648 -4.499,-11.549 -10.88,-11.549c-6.381,-0 -10.88,4.833 -10.88,11.549c-0,6.916 4.499,11.684 10.88,11.684c6.381,0 10.88,-4.836 10.88,-11.684Z" style="fill:#fff;fill-rule:nonzero;"/><path d="M80.748,60.053c0,2.686 -1.948,4.633 -4.499,4.633c-2.552,0 -4.499,-1.947 -4.499,-4.633c-0,-2.754 1.947,-4.701 4.499,-4.701c2.551,-0 4.499,1.947 4.499,4.701Zm-8.326,45.93l-0,-35.724l7.654,0l0,35.724l-7.654,-0Z" style="fill:#fff;fill-rule:nonzero;"/><path d="M125.405,88.122c-0,10.745 -7.587,18.13 -18.6,18.13c-11.08,-0 -18.67,-7.385 -18.67,-18.13c-0,-10.813 7.587,-18.13 18.67,-18.13c11.013,-0.003 18.6,7.317 18.6,18.13Zm-29.546,0.065c0,6.915 4.499,11.616 10.945,11.616c6.379,0 10.878,-4.701 10.878,-11.616c-0,-6.849 -4.499,-11.55 -10.877,-11.55c-6.447,0.001 -10.946,4.702 -10.946,11.55Z" style="fill:#fff;fill-rule:nonzero;"/><path d="M140.314,105.983l-13.833,-35.724l8.059,0l9.937,28.137l9.804,-28.137l7.722,0l-13.699,35.724l-7.99,-0Z" style="fill:#fff;fill-rule:nonzero;"/><path d="M175.702,60.053c0,2.686 -1.947,4.633 -4.498,4.633c-2.552,0 -4.499,-1.947 -4.499,-4.633c-0,-2.754 1.947,-4.701 4.499,-4.701c2.552,-0 4.498,1.947 4.498,4.701Zm-8.327,45.93l-0,-35.724l7.655,0l-0,35.724l-7.655,-0Z" style="fill:#fff;fill-rule:nonzero;"/><path d="M209.612,73.55l-2.823,5.706c-3.156,-1.947 -7.116,-3.156 -10.272,-3.156c-3.023,0 -5.238,1.007 -5.238,3.558c0,6.582 19.001,3.024 18.936,15.984c0,7.32 -6.513,10.609 -13.698,10.609c-5.238,0 -10.813,-1.745 -14.37,-4.968l2.753,-5.505c3.088,2.753 8.058,4.431 11.953,4.431c3.29,0 5.843,-1.141 5.843,-3.827c-0,-7.321 -18.802,-3.224 -18.735,-16.118c-0,-7.253 6.313,-10.341 13.162,-10.341c4.5,-0.001 9.266,1.342 12.489,3.627Z" style="fill:#fff;fill-rule:nonzero;"/><path d="M149.055,123.679l-18.721,-0c-1.38,-0 -2.497,-0.728 -2.497,-2.105c-0,-1.38 1.117,-2.106 2.497,-2.106l18.721,0c1.379,0 2.499,0.726 2.499,2.106c-0.003,1.377 -1.123,2.105 -2.499,2.105Z" style="fill:#bdc3c7;fill-rule:nonzero;"/><path d="M47.951,123.679l-19.971,-0c-1.379,-0 -2.496,-0.728 -2.496,-2.105c-0,-1.38 1.117,-2.106 2.496,-2.106l19.971,0c1.378,0 2.496,0.726 2.496,2.106c0,1.377 -1.119,2.105 -2.496,2.105Z" style="fill:#00a6ac;fill-rule:nonzero;"/><path d="M179.012,123.679l-18.724,-0c-1.379,-0 -2.495,-0.728 -2.495,-2.105c0,-1.38 1.119,-2.106 2.495,-2.106l18.724,0c1.379,0 2.497,0.726 2.497,2.106c-0.001,1.377 -1.118,2.105 -2.497,2.105Z" style="fill:#fff;fill-rule:nonzero;"/><path d="M120.347,123.679l-28.71,-0c-1.38,-0 -2.497,-0.728 -2.497,-2.105c-0,-1.38 1.117,-2.106 2.497,-2.106l28.708,0c1.379,0 2.495,0.726 2.495,2.106c0.002,1.377 -1.116,2.105 -2.493,2.105Z" style="fill:#fff;fill-rule:nonzero;"/><path d="M80.402,123.679l-23.715,-0c-1.379,-0 -2.496,-0.728 -2.496,-2.105c-0,-1.38 1.117,-2.106 2.496,-2.106l23.715,0c1.38,0 2.497,0.726 2.497,2.106c0,1.377 -1.117,2.105 -2.497,2.105Z" style="fill:#bdc3c7;fill-rule:nonzero;"/><path d="M207.719,123.679l-19.968,-0c-1.381,-0 -2.499,-0.728 -2.499,-2.105c0,-1.38 1.118,-2.106 2.499,-2.106l19.968,0c1.381,0 2.497,0.726 2.497,2.106c0.002,1.377 -1.116,2.105 -2.497,2.105Z" style="fill:#00a6ac;fill-rule:nonzero;"/><path d="M58.228,132.101l-18.722,-0c-1.378,-0 -2.496,-0.729 -2.496,-2.106c-0,-1.379 1.118,-2.106 2.496,-2.106l18.722,0c1.379,0 2.499,0.727 2.499,2.106c-0,1.377 -1.12,2.106 -2.499,2.106Z" style="fill:#fff;fill-rule:nonzero;"/><path d="M108.883,132.101l-3.743,-0c-1.38,-0 -2.497,-0.727 -2.497,-2.106c-0,-1.379 1.117,-2.106 2.497,-2.106l3.743,0c1.379,0 2.497,0.727 2.497,2.106c-0,1.379 -1.119,2.106 -2.497,2.106Z" style="fill:#fff;fill-rule:nonzero;"/><path d="M90.716,132.101l-3.743,-0c-1.379,-0 -2.497,-0.727 -2.497,-2.106c0,-1.379 1.118,-2.106 2.497,-2.106l3.743,0c1.379,0 2.497,0.727 2.497,2.106c0,1.379 -1.118,2.106 -2.497,2.106Z" style="fill:#00a6ac;fill-rule:nonzero;"/><path d="M195.369,132.101l-18.721,-0c-1.379,-0 -2.497,-0.729 -2.497,-2.106c-0,-1.379 1.118,-2.106 2.497,-2.106l18.721,0c1.379,0 2.5,0.727 2.5,2.106c-0.002,1.377 -1.122,2.106 -2.5,2.106Z" style="fill:#bdc3c7;fill-rule:nonzero;"/><path d="M189.875,132.101l-23.715,-0c-1.379,-0 -2.497,-0.729 -2.497,-2.106c-0,-1.379 1.118,-2.106 2.497,-2.106l23.715,0c1.379,0 2.497,0.727 2.497,2.106c0,1.377 -1.118,2.106 -2.497,2.106Z" style="fill:#00a6ac;fill-rule:nonzero;"/><path d="M148.883,123.679l-3.744,-0c-1.378,-0 -2.497,-0.726 -2.497,-2.105c0,-1.38 1.119,-2.106 2.497,-2.106l3.743,0c1.379,0 2.497,0.726 2.497,2.106c0,1.379 -1.118,2.105 -2.497,2.105Z" style="fill:#fff;fill-rule:nonzero;"/><path d="M69.665,123.679l-3.744,-0c-1.378,-0 -2.496,-0.726 -2.496,-2.105c-0,-1.38 1.118,-2.106 2.496,-2.106l3.744,0c1.378,0 2.496,0.726 2.496,2.106c0,1.379 -1.119,2.105 -2.496,2.105Z" style="fill:#00a6ac;fill-rule:nonzero;"/><path d="M120.345,123.679l-3.742,-0c-1.38,-0 -2.497,-0.726 -2.497,-2.105c-0,-1.38 1.117,-2.106 2.497,-2.106l3.742,0c1.379,0 2.497,0.726 2.497,2.106c-0,1.379 -1.118,2.105 -2.497,2.105Z" style="fill:#00a6ac;fill-rule:nonzero;"/><rect x="38.133" y="150.389" width="174.544" height="43.034" style="fill:none;"/><g><path d="M45.148,158.974l5.735,-0l-0.573,2.74c2.237,-2.181 4.588,-3.271 7.052,-3.271c1.699,-0 3.009,0.354 3.929,1.062c0.92,0.708 1.508,1.685 1.763,2.931c0.779,-1.133 1.897,-2.082 3.356,-2.846c1.458,-0.765 2.974,-1.147 4.545,-1.147c1.799,-0 3.201,0.481 4.206,1.444c1.005,0.963 1.508,2.237 1.508,3.823c0,0.779 -0.198,2.124 -0.595,4.036l-2.888,13.785l-6.096,-0l2.888,-13.785c0.354,-1.728 0.531,-2.705 0.531,-2.931c0,-0.623 -0.187,-1.115 -0.563,-1.477c-0.375,-0.361 -0.938,-0.541 -1.688,-0.541c-1.515,-0 -2.868,0.8 -4.057,2.4c-0.864,1.147 -1.6,3.179 -2.209,6.096l-2.145,10.238l-6.096,-0l2.846,-13.636c0.326,-1.572 0.489,-2.592 0.489,-3.059c-0,-0.595 -0.202,-1.083 -0.606,-1.466c-0.403,-0.382 -0.959,-0.573 -1.667,-0.573c-0.666,-0 -1.352,0.198 -2.061,0.595c-0.708,0.396 -1.327,0.941 -1.858,1.635c-0.531,0.694 -0.988,1.586 -1.37,2.676c-0.17,0.51 -0.446,1.664 -0.828,3.463l-2.167,10.365l-6.096,-0l4.715,-22.557Z" style="fill:#fff;fill-rule:nonzero;"/><path d="M101.265,172.143l-15.293,-0c-0.014,0.24 -0.021,0.424 -0.021,0.552c-0,1.501 0.428,2.711 1.285,3.632c0.857,0.92 1.901,1.381 3.133,1.381c2.025,-0 3.604,-1.048 4.737,-3.144l5.458,0.913c-1.062,2.195 -2.481,3.841 -4.258,4.939c-1.778,1.097 -3.771,1.646 -5.98,1.646c-3.03,-0 -5.494,-0.96 -7.391,-2.878c-1.898,-1.919 -2.846,-4.457 -2.846,-7.615c-0,-3.087 0.856,-5.834 2.57,-8.241c2.336,-3.257 5.671,-4.885 10.004,-4.885c2.761,-0 4.956,0.853 6.584,2.559c1.629,1.706 2.443,4.096 2.443,7.169c-0,1.472 -0.142,2.796 -0.425,3.972Zm-5.14,-3.717c0.014,-0.27 0.021,-0.475 0.021,-0.616c0,-1.671 -0.375,-2.925 -1.125,-3.76c-0.751,-0.835 -1.756,-1.253 -3.017,-1.253c-1.26,-0 -2.389,0.474 -3.387,1.423c-0.999,0.949 -1.675,2.351 -2.029,4.206l9.537,-0Z" style="fill:#fff;fill-rule:nonzero;"/><path d="M125.458,172.143l-15.293,-0c-0.014,0.24 -0.021,0.424 -0.021,0.552c-0,1.501 0.428,2.711 1.285,3.632c0.856,0.92 1.901,1.381 3.133,1.381c2.024,-0 3.603,-1.048 4.736,-3.144l5.459,0.913c-1.062,2.195 -2.482,3.841 -4.259,4.939c-1.777,1.097 -3.77,1.646 -5.979,1.646c-3.03,-0 -5.494,-0.96 -7.392,-2.878c-1.897,-1.919 -2.846,-4.457 -2.846,-7.615c0,-3.087 0.857,-5.834 2.57,-8.241c2.337,-3.257 5.672,-4.885 10.005,-4.885c2.761,-0 4.956,0.853 6.584,2.559c1.628,1.706 2.443,4.096 2.443,7.169c-0,1.472 -0.142,2.796 -0.425,3.972Zm-5.14,-3.717c0.014,-0.27 0.021,-0.475 0.021,-0.616c-0,-1.671 -0.375,-2.925 -1.126,-3.76c-0.75,-0.835 -1.756,-1.253 -3.016,-1.253c-1.26,-0 -2.389,0.474 -3.388,1.423c-0.998,0.949 -1.674,2.351 -2.028,4.206l9.537,-0Z" style="fill:#fff;fill-rule:nonzero;"/><path d="M129.217,163.498l0.935,-4.524l2.974,-0l0.743,-3.611l6.988,-4.206l-1.636,7.817l3.718,-0l-0.935,4.524l-3.738,-0l-1.976,9.452c-0.354,1.713 -0.531,2.69 -0.531,2.931c0,0.467 0.149,0.832 0.446,1.094c0.298,0.262 0.836,0.393 1.615,0.393c0.269,-0 0.941,-0.05 2.017,-0.149l-0.955,4.524c-1.048,0.213 -2.124,0.319 -3.229,0.319c-2.152,-0 -3.717,-0.414 -4.694,-1.243c-0.977,-0.828 -1.466,-1.979 -1.466,-3.451c0,-0.694 0.262,-2.294 0.786,-4.801l1.891,-9.069l-2.953,-0Z" style="fill:#fff;fill-rule:nonzero;"/><path d="M146.847,158.974l6.096,-0l-2.783,13.36c-0.34,1.6 -0.51,2.598 -0.51,2.995c0,0.651 0.241,1.21 0.723,1.678c0.481,0.467 1.097,0.701 1.848,0.701c0.538,-0 1.069,-0.103 1.593,-0.308c0.523,-0.206 1.062,-0.517 1.614,-0.935c0.552,-0.418 1.048,-0.896 1.487,-1.434c0.439,-0.538 0.849,-1.246 1.232,-2.124c0.269,-0.651 0.559,-1.713 0.87,-3.186l2.252,-10.747l6.096,-0l-4.716,22.557l-5.692,-0l0.637,-3.059c-2.492,2.393 -5.204,3.59 -8.135,3.59c-1.855,-0 -3.313,-0.531 -4.375,-1.593c-1.062,-1.062 -1.593,-2.485 -1.593,-4.27c-0,-0.778 0.241,-2.329 0.722,-4.651l2.634,-12.574Z" style="fill:#fff;fill-rule:nonzero;"/><path d="M173.27,158.974l5.777,-0l-0.489,2.315c1.232,-1.02 2.386,-1.749 3.463,-2.188c1.076,-0.439 2.23,-0.658 3.462,-0.658c2.364,-0 4.265,0.814 5.703,2.442c1.437,1.629 2.156,4.057 2.156,7.286c-0,4.064 -1.239,7.497 -3.717,10.301c-2.124,2.393 -4.638,3.59 -7.541,3.59c-2.988,-0 -5.246,-1.211 -6.775,-3.632l-2.443,11.703l-6.096,0l6.5,-31.159Zm3.674,12.935c0,1.756 0.428,3.119 1.285,4.089c0.857,0.97 1.866,1.455 3.027,1.455c1.005,-0 1.975,-0.365 2.91,-1.094c0.934,-0.729 1.71,-1.94 2.326,-3.632c0.616,-1.692 0.924,-3.261 0.924,-4.705c-0,-1.685 -0.404,-2.977 -1.211,-3.876c-0.807,-0.9 -1.834,-1.349 -3.08,-1.349c-1.161,-0 -2.22,0.414 -3.175,1.242c-0.956,0.829 -1.696,2.047 -2.22,3.654c-0.524,1.607 -0.786,3.012 -0.786,4.216Z" style="fill:#fff;fill-rule:nonzero;"/></g></g></svg>